<svg width="56" height="12" viewBox="0 0 56 12" fill="none" xmlns="http://www.w3.org/2000/svg">
<path fill-rule="evenodd" clip-rule="evenodd" d="M5.78302 0C8.82533 0 10.2809 3.75224 7.89428 5.36034C9.21873 6.00856 9.74327 7.04323 9.74327 8.05297C9.74327 9.96025 8.36636 11.88 5.74368 11.88H0.524537C0.236041 11.88 0 11.6556 0 11.3814V0.498636C0 0.224386 0.236041 0 0.524537 0H5.78302ZM19.4865 5.96512C19.4865 2.57442 22.2639 0 25.6803 0C29.0966 0 31.8871 2.56186 31.8871 5.96512C31.8871 9.30558 29.0966 11.88 25.6803 11.88C22.2509 11.88 19.4865 9.35581 19.4865 5.96512ZM42.0975 0H38.3554C35.0319 0 32.3299 2.57442 32.3299 5.96512C32.3299 9.35581 35.0192 11.88 38.3554 11.88H42.0975C42.3258 11.88 42.5161 11.6916 42.5161 11.4656V0.426977C42.5161 0.175814 42.3258 0 42.0975 0ZM49.5956 0C46.1792 0 43.4018 2.57442 43.4018 5.96512C43.4018 9.35581 46.1662 11.88 49.5956 11.88C53.0119 11.88 55.8024 9.30558 55.8024 5.96512C55.8024 2.56186 53.0119 0 49.5956 0ZM10.7772 0.111566C10.5716 -0.114267 10.1861 0.0237422 10.1861 0.3374V11.5413C10.1861 11.7294 10.3403 11.88 10.5331 11.88H20.9157C21.2112 11.88 21.3654 11.5413 21.1727 11.328L10.7772 0.111566Z" fill="#FCFCFC"/>
</svg>
